<mxfile host="app.diagrams.net" agent="Mozilla/5.0 (Windows NT 10.0; Win64; x64) AppleWebKit/537.36 (KHTML, like Gecko) Chrome/132.0.0.0 Safari/537.36" version="26.0.10">
  <diagram name="Page-1" id="4ugJvmt7bFNOuQGOyG3C">
    <mxGraphModel dx="880" dy="510" grid="0" gridSize="10" guides="1" tooltips="1" connect="1" arrows="1" fold="1" page="0" pageScale="1" pageWidth="850" pageHeight="1100" math="0" shadow="0">
      <root>
        <mxCell id="0" />
        <mxCell id="1" parent="0" />
        <mxCell id="D-i0xarBF_kTSEOnXS1Z-1" value="account_login" style="shape=table;startSize=30;container=1;collapsible=1;childLayout=tableLayout;fixedRows=1;rowLines=0;fontStyle=1;align=center;resizeLast=1;html=1;" vertex="1" parent="1">
          <mxGeometry x="74" y="249" width="330" height="352.0833333333335" as="geometry" />
        </mxCell>
        <mxCell id="D-i0xarBF_kTSEOnXS1Z-2" value="" style="shape=tableRow;horizontal=0;startSize=0;swimlaneHead=0;swimlaneBody=0;fillColor=none;collapsible=0;dropTarget=0;points=[[0,0.5],[1,0.5]];portConstraint=eastwest;top=0;left=0;right=0;bottom=1;" vertex="1" parent="D-i0xarBF_kTSEOnXS1Z-1">
          <mxGeometry y="30" width="330" height="30" as="geometry" />
        </mxCell>
        <mxCell id="D-i0xarBF_kTSEOnXS1Z-3" value="PK" style="shape=partialRectangle;connectable=0;fillColor=none;top=0;left=0;bottom=0;right=0;fontStyle=1;overflow=hidden;whiteSpace=wrap;html=1;" vertex="1" parent="D-i0xarBF_kTSEOnXS1Z-2">
          <mxGeometry width="30" height="30" as="geometry">
            <mxRectangle width="30" height="30" as="alternateBounds" />
          </mxGeometry>
        </mxCell>
        <mxCell id="D-i0xarBF_kTSEOnXS1Z-4" value="_id" style="shape=partialRectangle;connectable=0;fillColor=none;top=0;left=0;bottom=0;right=0;align=left;spacingLeft=6;fontStyle=5;overflow=hidden;whiteSpace=wrap;html=1;" vertex="1" parent="D-i0xarBF_kTSEOnXS1Z-2">
          <mxGeometry x="30" width="107.75" height="30" as="geometry">
            <mxRectangle width="107.75" height="30" as="alternateBounds" />
          </mxGeometry>
        </mxCell>
        <mxCell id="D-i0xarBF_kTSEOnXS1Z-17" value="ObjectId" style="shape=partialRectangle;connectable=0;fillColor=none;top=0;left=0;bottom=0;right=0;align=left;spacingLeft=6;fontStyle=5;overflow=hidden;whiteSpace=wrap;html=1;" vertex="1" parent="D-i0xarBF_kTSEOnXS1Z-2">
          <mxGeometry x="137.75" width="192.25" height="30" as="geometry">
            <mxRectangle width="192.25" height="30" as="alternateBounds" />
          </mxGeometry>
        </mxCell>
        <mxCell id="D-i0xarBF_kTSEOnXS1Z-5" value="" style="shape=tableRow;horizontal=0;startSize=0;swimlaneHead=0;swimlaneBody=0;fillColor=none;collapsible=0;dropTarget=0;points=[[0,0.5],[1,0.5]];portConstraint=eastwest;top=0;left=0;right=0;bottom=0;" vertex="1" parent="D-i0xarBF_kTSEOnXS1Z-1">
          <mxGeometry y="60" width="330" height="52" as="geometry" />
        </mxCell>
        <mxCell id="D-i0xarBF_kTSEOnXS1Z-6" value="" style="shape=partialRectangle;connectable=0;fillColor=none;top=0;left=0;bottom=0;right=0;editable=1;overflow=hidden;whiteSpace=wrap;html=1;" vertex="1" parent="D-i0xarBF_kTSEOnXS1Z-5">
          <mxGeometry width="30" height="52" as="geometry">
            <mxRectangle width="30" height="52" as="alternateBounds" />
          </mxGeometry>
        </mxCell>
        <mxCell id="D-i0xarBF_kTSEOnXS1Z-7" value="name" style="shape=partialRectangle;connectable=0;fillColor=none;top=0;left=0;bottom=0;right=0;align=left;spacingLeft=6;overflow=hidden;whiteSpace=wrap;html=1;" vertex="1" parent="D-i0xarBF_kTSEOnXS1Z-5">
          <mxGeometry x="30" width="107.75" height="52" as="geometry">
            <mxRectangle width="107.75" height="52" as="alternateBounds" />
          </mxGeometry>
        </mxCell>
        <mxCell id="D-i0xarBF_kTSEOnXS1Z-18" value="Object&lt;div&gt;{ firstname, middlename, lastname, suffix }&lt;/div&gt;" style="shape=partialRectangle;connectable=0;fillColor=none;top=0;left=0;bottom=0;right=0;align=left;spacingLeft=6;overflow=hidden;whiteSpace=wrap;html=1;" vertex="1" parent="D-i0xarBF_kTSEOnXS1Z-5">
          <mxGeometry x="137.75" width="192.25" height="52" as="geometry">
            <mxRectangle width="192.25" height="52" as="alternateBounds" />
          </mxGeometry>
        </mxCell>
        <mxCell id="D-i0xarBF_kTSEOnXS1Z-14" style="shape=tableRow;horizontal=0;startSize=0;swimlaneHead=0;swimlaneBody=0;fillColor=none;collapsible=0;dropTarget=0;points=[[0,0.5],[1,0.5]];portConstraint=eastwest;top=0;left=0;right=0;bottom=0;" vertex="1" parent="D-i0xarBF_kTSEOnXS1Z-1">
          <mxGeometry y="112" width="330" height="30" as="geometry" />
        </mxCell>
        <mxCell id="D-i0xarBF_kTSEOnXS1Z-15" style="shape=partialRectangle;connectable=0;fillColor=none;top=0;left=0;bottom=0;right=0;editable=1;overflow=hidden;whiteSpace=wrap;html=1;" vertex="1" parent="D-i0xarBF_kTSEOnXS1Z-14">
          <mxGeometry width="30" height="30" as="geometry">
            <mxRectangle width="30" height="30" as="alternateBounds" />
          </mxGeometry>
        </mxCell>
        <mxCell id="D-i0xarBF_kTSEOnXS1Z-16" value="birthdate" style="shape=partialRectangle;connectable=0;fillColor=none;top=0;left=0;bottom=0;right=0;align=left;spacingLeft=6;overflow=hidden;whiteSpace=wrap;html=1;" vertex="1" parent="D-i0xarBF_kTSEOnXS1Z-14">
          <mxGeometry x="30" width="107.75" height="30" as="geometry">
            <mxRectangle width="107.75" height="30" as="alternateBounds" />
          </mxGeometry>
        </mxCell>
        <mxCell id="D-i0xarBF_kTSEOnXS1Z-21" value="Date" style="shape=partialRectangle;connectable=0;fillColor=none;top=0;left=0;bottom=0;right=0;align=left;spacingLeft=6;overflow=hidden;whiteSpace=wrap;html=1;" vertex="1" parent="D-i0xarBF_kTSEOnXS1Z-14">
          <mxGeometry x="137.75" width="192.25" height="30" as="geometry">
            <mxRectangle width="192.25" height="30" as="alternateBounds" />
          </mxGeometry>
        </mxCell>
        <mxCell id="D-i0xarBF_kTSEOnXS1Z-22" style="shape=tableRow;horizontal=0;startSize=0;swimlaneHead=0;swimlaneBody=0;fillColor=none;collapsible=0;dropTarget=0;points=[[0,0.5],[1,0.5]];portConstraint=eastwest;top=0;left=0;right=0;bottom=0;" vertex="1" parent="D-i0xarBF_kTSEOnXS1Z-1">
          <mxGeometry y="142" width="330" height="30" as="geometry" />
        </mxCell>
        <mxCell id="D-i0xarBF_kTSEOnXS1Z-23" style="shape=partialRectangle;connectable=0;fillColor=none;top=0;left=0;bottom=0;right=0;editable=1;overflow=hidden;whiteSpace=wrap;html=1;" vertex="1" parent="D-i0xarBF_kTSEOnXS1Z-22">
          <mxGeometry width="30" height="30" as="geometry">
            <mxRectangle width="30" height="30" as="alternateBounds" />
          </mxGeometry>
        </mxCell>
        <mxCell id="D-i0xarBF_kTSEOnXS1Z-24" value="campus" style="shape=partialRectangle;connectable=0;fillColor=none;top=0;left=0;bottom=0;right=0;align=left;spacingLeft=6;overflow=hidden;whiteSpace=wrap;html=1;" vertex="1" parent="D-i0xarBF_kTSEOnXS1Z-22">
          <mxGeometry x="30" width="107.75" height="30" as="geometry">
            <mxRectangle width="107.75" height="30" as="alternateBounds" />
          </mxGeometry>
        </mxCell>
        <mxCell id="D-i0xarBF_kTSEOnXS1Z-25" value="String" style="shape=partialRectangle;connectable=0;fillColor=none;top=0;left=0;bottom=0;right=0;align=left;spacingLeft=6;overflow=hidden;whiteSpace=wrap;html=1;" vertex="1" parent="D-i0xarBF_kTSEOnXS1Z-22">
          <mxGeometry x="137.75" width="192.25" height="30" as="geometry">
            <mxRectangle width="192.25" height="30" as="alternateBounds" />
          </mxGeometry>
        </mxCell>
        <mxCell id="D-i0xarBF_kTSEOnXS1Z-26" style="shape=tableRow;horizontal=0;startSize=0;swimlaneHead=0;swimlaneBody=0;fillColor=none;collapsible=0;dropTarget=0;points=[[0,0.5],[1,0.5]];portConstraint=eastwest;top=0;left=0;right=0;bottom=0;" vertex="1" parent="D-i0xarBF_kTSEOnXS1Z-1">
          <mxGeometry y="172" width="330" height="30" as="geometry" />
        </mxCell>
        <mxCell id="D-i0xarBF_kTSEOnXS1Z-27" style="shape=partialRectangle;connectable=0;fillColor=none;top=0;left=0;bottom=0;right=0;editable=1;overflow=hidden;whiteSpace=wrap;html=1;" vertex="1" parent="D-i0xarBF_kTSEOnXS1Z-26">
          <mxGeometry width="30" height="30" as="geometry">
            <mxRectangle width="30" height="30" as="alternateBounds" />
          </mxGeometry>
        </mxCell>
        <mxCell id="D-i0xarBF_kTSEOnXS1Z-28" value="department" style="shape=partialRectangle;connectable=0;fillColor=none;top=0;left=0;bottom=0;right=0;align=left;spacingLeft=6;overflow=hidden;whiteSpace=wrap;html=1;" vertex="1" parent="D-i0xarBF_kTSEOnXS1Z-26">
          <mxGeometry x="30" width="107.75" height="30" as="geometry">
            <mxRectangle width="107.75" height="30" as="alternateBounds" />
          </mxGeometry>
        </mxCell>
        <mxCell id="D-i0xarBF_kTSEOnXS1Z-29" value="String" style="shape=partialRectangle;connectable=0;fillColor=none;top=0;left=0;bottom=0;right=0;align=left;spacingLeft=6;overflow=hidden;whiteSpace=wrap;html=1;" vertex="1" parent="D-i0xarBF_kTSEOnXS1Z-26">
          <mxGeometry x="137.75" width="192.25" height="30" as="geometry">
            <mxRectangle width="192.25" height="30" as="alternateBounds" />
          </mxGeometry>
        </mxCell>
        <mxCell id="D-i0xarBF_kTSEOnXS1Z-30" style="shape=tableRow;horizontal=0;startSize=0;swimlaneHead=0;swimlaneBody=0;fillColor=none;collapsible=0;dropTarget=0;points=[[0,0.5],[1,0.5]];portConstraint=eastwest;top=0;left=0;right=0;bottom=0;" vertex="1" parent="D-i0xarBF_kTSEOnXS1Z-1">
          <mxGeometry y="202" width="330" height="30" as="geometry" />
        </mxCell>
        <mxCell id="D-i0xarBF_kTSEOnXS1Z-31" style="shape=partialRectangle;connectable=0;fillColor=none;top=0;left=0;bottom=0;right=0;editable=1;overflow=hidden;whiteSpace=wrap;html=1;" vertex="1" parent="D-i0xarBF_kTSEOnXS1Z-30">
          <mxGeometry width="30" height="30" as="geometry">
            <mxRectangle width="30" height="30" as="alternateBounds" />
          </mxGeometry>
        </mxCell>
        <mxCell id="D-i0xarBF_kTSEOnXS1Z-32" value="username" style="shape=partialRectangle;connectable=0;fillColor=none;top=0;left=0;bottom=0;right=0;align=left;spacingLeft=6;overflow=hidden;whiteSpace=wrap;html=1;" vertex="1" parent="D-i0xarBF_kTSEOnXS1Z-30">
          <mxGeometry x="30" width="107.75" height="30" as="geometry">
            <mxRectangle width="107.75" height="30" as="alternateBounds" />
          </mxGeometry>
        </mxCell>
        <mxCell id="D-i0xarBF_kTSEOnXS1Z-33" value="String" style="shape=partialRectangle;connectable=0;fillColor=none;top=0;left=0;bottom=0;right=0;align=left;spacingLeft=6;overflow=hidden;whiteSpace=wrap;html=1;" vertex="1" parent="D-i0xarBF_kTSEOnXS1Z-30">
          <mxGeometry x="137.75" width="192.25" height="30" as="geometry">
            <mxRectangle width="192.25" height="30" as="alternateBounds" />
          </mxGeometry>
        </mxCell>
        <mxCell id="D-i0xarBF_kTSEOnXS1Z-34" style="shape=tableRow;horizontal=0;startSize=0;swimlaneHead=0;swimlaneBody=0;fillColor=none;collapsible=0;dropTarget=0;points=[[0,0.5],[1,0.5]];portConstraint=eastwest;top=0;left=0;right=0;bottom=0;" vertex="1" parent="D-i0xarBF_kTSEOnXS1Z-1">
          <mxGeometry y="232" width="330" height="30" as="geometry" />
        </mxCell>
        <mxCell id="D-i0xarBF_kTSEOnXS1Z-35" style="shape=partialRectangle;connectable=0;fillColor=none;top=0;left=0;bottom=0;right=0;editable=1;overflow=hidden;whiteSpace=wrap;html=1;" vertex="1" parent="D-i0xarBF_kTSEOnXS1Z-34">
          <mxGeometry width="30" height="30" as="geometry">
            <mxRectangle width="30" height="30" as="alternateBounds" />
          </mxGeometry>
        </mxCell>
        <mxCell id="D-i0xarBF_kTSEOnXS1Z-36" value="password" style="shape=partialRectangle;connectable=0;fillColor=none;top=0;left=0;bottom=0;right=0;align=left;spacingLeft=6;overflow=hidden;whiteSpace=wrap;html=1;" vertex="1" parent="D-i0xarBF_kTSEOnXS1Z-34">
          <mxGeometry x="30" width="107.75" height="30" as="geometry">
            <mxRectangle width="107.75" height="30" as="alternateBounds" />
          </mxGeometry>
        </mxCell>
        <mxCell id="D-i0xarBF_kTSEOnXS1Z-37" value="String" style="shape=partialRectangle;connectable=0;fillColor=none;top=0;left=0;bottom=0;right=0;align=left;spacingLeft=6;overflow=hidden;whiteSpace=wrap;html=1;" vertex="1" parent="D-i0xarBF_kTSEOnXS1Z-34">
          <mxGeometry x="137.75" width="192.25" height="30" as="geometry">
            <mxRectangle width="192.25" height="30" as="alternateBounds" />
          </mxGeometry>
        </mxCell>
        <mxCell id="D-i0xarBF_kTSEOnXS1Z-38" style="shape=tableRow;horizontal=0;startSize=0;swimlaneHead=0;swimlaneBody=0;fillColor=none;collapsible=0;dropTarget=0;points=[[0,0.5],[1,0.5]];portConstraint=eastwest;top=0;left=0;right=0;bottom=0;" vertex="1" parent="D-i0xarBF_kTSEOnXS1Z-1">
          <mxGeometry y="262" width="330" height="30" as="geometry" />
        </mxCell>
        <mxCell id="D-i0xarBF_kTSEOnXS1Z-39" style="shape=partialRectangle;connectable=0;fillColor=none;top=0;left=0;bottom=0;right=0;editable=1;overflow=hidden;whiteSpace=wrap;html=1;" vertex="1" parent="D-i0xarBF_kTSEOnXS1Z-38">
          <mxGeometry width="30" height="30" as="geometry">
            <mxRectangle width="30" height="30" as="alternateBounds" />
          </mxGeometry>
        </mxCell>
        <mxCell id="D-i0xarBF_kTSEOnXS1Z-40" value="role" style="shape=partialRectangle;connectable=0;fillColor=none;top=0;left=0;bottom=0;right=0;align=left;spacingLeft=6;overflow=hidden;whiteSpace=wrap;html=1;" vertex="1" parent="D-i0xarBF_kTSEOnXS1Z-38">
          <mxGeometry x="30" width="107.75" height="30" as="geometry">
            <mxRectangle width="107.75" height="30" as="alternateBounds" />
          </mxGeometry>
        </mxCell>
        <mxCell id="D-i0xarBF_kTSEOnXS1Z-41" value="String" style="shape=partialRectangle;connectable=0;fillColor=none;top=0;left=0;bottom=0;right=0;align=left;spacingLeft=6;overflow=hidden;whiteSpace=wrap;html=1;" vertex="1" parent="D-i0xarBF_kTSEOnXS1Z-38">
          <mxGeometry x="137.75" width="192.25" height="30" as="geometry">
            <mxRectangle width="192.25" height="30" as="alternateBounds" />
          </mxGeometry>
        </mxCell>
        <mxCell id="D-i0xarBF_kTSEOnXS1Z-42" style="shape=tableRow;horizontal=0;startSize=0;swimlaneHead=0;swimlaneBody=0;fillColor=none;collapsible=0;dropTarget=0;points=[[0,0.5],[1,0.5]];portConstraint=eastwest;top=0;left=0;right=0;bottom=0;" vertex="1" parent="D-i0xarBF_kTSEOnXS1Z-1">
          <mxGeometry y="292" width="330" height="30" as="geometry" />
        </mxCell>
        <mxCell id="D-i0xarBF_kTSEOnXS1Z-43" style="shape=partialRectangle;connectable=0;fillColor=none;top=0;left=0;bottom=0;right=0;editable=1;overflow=hidden;whiteSpace=wrap;html=1;" vertex="1" parent="D-i0xarBF_kTSEOnXS1Z-42">
          <mxGeometry width="30" height="30" as="geometry">
            <mxRectangle width="30" height="30" as="alternateBounds" />
          </mxGeometry>
        </mxCell>
        <mxCell id="D-i0xarBF_kTSEOnXS1Z-44" value="status" style="shape=partialRectangle;connectable=0;fillColor=none;top=0;left=0;bottom=0;right=0;align=left;spacingLeft=6;overflow=hidden;whiteSpace=wrap;html=1;" vertex="1" parent="D-i0xarBF_kTSEOnXS1Z-42">
          <mxGeometry x="30" width="107.75" height="30" as="geometry">
            <mxRectangle width="107.75" height="30" as="alternateBounds" />
          </mxGeometry>
        </mxCell>
        <mxCell id="D-i0xarBF_kTSEOnXS1Z-45" value="String" style="shape=partialRectangle;connectable=0;fillColor=none;top=0;left=0;bottom=0;right=0;align=left;spacingLeft=6;overflow=hidden;whiteSpace=wrap;html=1;" vertex="1" parent="D-i0xarBF_kTSEOnXS1Z-42">
          <mxGeometry x="137.75" width="192.25" height="30" as="geometry">
            <mxRectangle width="192.25" height="30" as="alternateBounds" />
          </mxGeometry>
        </mxCell>
        <mxCell id="D-i0xarBF_kTSEOnXS1Z-46" style="shape=tableRow;horizontal=0;startSize=0;swimlaneHead=0;swimlaneBody=0;fillColor=none;collapsible=0;dropTarget=0;points=[[0,0.5],[1,0.5]];portConstraint=eastwest;top=0;left=0;right=0;bottom=0;" vertex="1" parent="D-i0xarBF_kTSEOnXS1Z-1">
          <mxGeometry y="322" width="330" height="30" as="geometry" />
        </mxCell>
        <mxCell id="D-i0xarBF_kTSEOnXS1Z-47" value="FK" style="shape=partialRectangle;connectable=0;fillColor=none;top=0;left=0;bottom=0;right=0;editable=1;overflow=hidden;whiteSpace=wrap;html=1;" vertex="1" parent="D-i0xarBF_kTSEOnXS1Z-46">
          <mxGeometry width="30" height="30" as="geometry">
            <mxRectangle width="30" height="30" as="alternateBounds" />
          </mxGeometry>
        </mxCell>
        <mxCell id="D-i0xarBF_kTSEOnXS1Z-48" value="profile" style="shape=partialRectangle;connectable=0;fillColor=none;top=0;left=0;bottom=0;right=0;align=left;spacingLeft=6;overflow=hidden;whiteSpace=wrap;html=1;" vertex="1" parent="D-i0xarBF_kTSEOnXS1Z-46">
          <mxGeometry x="30" width="107.75" height="30" as="geometry">
            <mxRectangle width="107.75" height="30" as="alternateBounds" />
          </mxGeometry>
        </mxCell>
        <mxCell id="D-i0xarBF_kTSEOnXS1Z-49" value="ObjectId = Referenced to Profile Collections" style="shape=partialRectangle;connectable=0;fillColor=none;top=0;left=0;bottom=0;right=0;align=left;spacingLeft=6;overflow=hidden;whiteSpace=wrap;html=1;" vertex="1" parent="D-i0xarBF_kTSEOnXS1Z-46">
          <mxGeometry x="137.75" width="192.25" height="30" as="geometry">
            <mxRectangle width="192.25" height="30" as="alternateBounds" />
          </mxGeometry>
        </mxCell>
        <mxCell id="D-i0xarBF_kTSEOnXS1Z-50" value="profile" style="shape=table;startSize=30;container=1;collapsible=1;childLayout=tableLayout;fixedRows=1;rowLines=0;fontStyle=1;align=center;resizeLast=1;html=1;" vertex="1" parent="1">
          <mxGeometry x="473" y="249" width="330" height="943" as="geometry" />
        </mxCell>
        <mxCell id="D-i0xarBF_kTSEOnXS1Z-51" value="" style="shape=tableRow;horizontal=0;startSize=0;swimlaneHead=0;swimlaneBody=0;fillColor=none;collapsible=0;dropTarget=0;points=[[0,0.5],[1,0.5]];portConstraint=eastwest;top=0;left=0;right=0;bottom=1;" vertex="1" parent="D-i0xarBF_kTSEOnXS1Z-50">
          <mxGeometry y="30" width="330" height="30" as="geometry" />
        </mxCell>
        <mxCell id="D-i0xarBF_kTSEOnXS1Z-52" value="PK" style="shape=partialRectangle;connectable=0;fillColor=none;top=0;left=0;bottom=0;right=0;fontStyle=1;overflow=hidden;whiteSpace=wrap;html=1;" vertex="1" parent="D-i0xarBF_kTSEOnXS1Z-51">
          <mxGeometry width="30" height="30" as="geometry">
            <mxRectangle width="30" height="30" as="alternateBounds" />
          </mxGeometry>
        </mxCell>
        <mxCell id="D-i0xarBF_kTSEOnXS1Z-53" value="_id" style="shape=partialRectangle;connectable=0;fillColor=none;top=0;left=0;bottom=0;right=0;align=left;spacingLeft=6;fontStyle=5;overflow=hidden;whiteSpace=wrap;html=1;" vertex="1" parent="D-i0xarBF_kTSEOnXS1Z-51">
          <mxGeometry x="30" width="96.75" height="30" as="geometry">
            <mxRectangle width="96.75" height="30" as="alternateBounds" />
          </mxGeometry>
        </mxCell>
        <mxCell id="D-i0xarBF_kTSEOnXS1Z-54" value="ObjectId" style="shape=partialRectangle;connectable=0;fillColor=none;top=0;left=0;bottom=0;right=0;align=left;spacingLeft=6;fontStyle=5;overflow=hidden;whiteSpace=wrap;html=1;" vertex="1" parent="D-i0xarBF_kTSEOnXS1Z-51">
          <mxGeometry x="126.75" width="203.25" height="30" as="geometry">
            <mxRectangle width="203.25" height="30" as="alternateBounds" />
          </mxGeometry>
        </mxCell>
        <mxCell id="D-i0xarBF_kTSEOnXS1Z-55" value="" style="shape=tableRow;horizontal=0;startSize=0;swimlaneHead=0;swimlaneBody=0;fillColor=none;collapsible=0;dropTarget=0;points=[[0,0.5],[1,0.5]];portConstraint=eastwest;top=0;left=0;right=0;bottom=0;" vertex="1" parent="D-i0xarBF_kTSEOnXS1Z-50">
          <mxGeometry y="60" width="330" height="52" as="geometry" />
        </mxCell>
        <mxCell id="D-i0xarBF_kTSEOnXS1Z-56" value="" style="shape=partialRectangle;connectable=0;fillColor=none;top=0;left=0;bottom=0;right=0;editable=1;overflow=hidden;whiteSpace=wrap;html=1;" vertex="1" parent="D-i0xarBF_kTSEOnXS1Z-55">
          <mxGeometry width="30" height="52" as="geometry">
            <mxRectangle width="30" height="52" as="alternateBounds" />
          </mxGeometry>
        </mxCell>
        <mxCell id="D-i0xarBF_kTSEOnXS1Z-57" value="course" style="shape=partialRectangle;connectable=0;fillColor=none;top=0;left=0;bottom=0;right=0;align=left;spacingLeft=6;overflow=hidden;whiteSpace=wrap;html=1;" vertex="1" parent="D-i0xarBF_kTSEOnXS1Z-55">
          <mxGeometry x="30" width="96.75" height="52" as="geometry">
            <mxRectangle width="96.75" height="52" as="alternateBounds" />
          </mxGeometry>
        </mxCell>
        <mxCell id="D-i0xarBF_kTSEOnXS1Z-58" value="Object { 1st choice, 2nd choice, 3rd choice }" style="shape=partialRectangle;connectable=0;fillColor=none;top=0;left=0;bottom=0;right=0;align=left;spacingLeft=6;overflow=hidden;whiteSpace=wrap;html=1;" vertex="1" parent="D-i0xarBF_kTSEOnXS1Z-55">
          <mxGeometry x="126.75" width="203.25" height="52" as="geometry">
            <mxRectangle width="203.25" height="52" as="alternateBounds" />
          </mxGeometry>
        </mxCell>
        <mxCell id="D-i0xarBF_kTSEOnXS1Z-59" style="shape=tableRow;horizontal=0;startSize=0;swimlaneHead=0;swimlaneBody=0;fillColor=none;collapsible=0;dropTarget=0;points=[[0,0.5],[1,0.5]];portConstraint=eastwest;top=0;left=0;right=0;bottom=0;" vertex="1" parent="D-i0xarBF_kTSEOnXS1Z-50">
          <mxGeometry y="112" width="330" height="145" as="geometry" />
        </mxCell>
        <mxCell id="D-i0xarBF_kTSEOnXS1Z-60" style="shape=partialRectangle;connectable=0;fillColor=none;top=0;left=0;bottom=0;right=0;editable=1;overflow=hidden;whiteSpace=wrap;html=1;" vertex="1" parent="D-i0xarBF_kTSEOnXS1Z-59">
          <mxGeometry width="30" height="145" as="geometry">
            <mxRectangle width="30" height="145" as="alternateBounds" />
          </mxGeometry>
        </mxCell>
        <mxCell id="D-i0xarBF_kTSEOnXS1Z-61" value="personal_info" style="shape=partialRectangle;connectable=0;fillColor=none;top=0;left=0;bottom=0;right=0;align=left;spacingLeft=6;overflow=hidden;whiteSpace=wrap;html=1;" vertex="1" parent="D-i0xarBF_kTSEOnXS1Z-59">
          <mxGeometry x="30" width="96.75" height="145" as="geometry">
            <mxRectangle width="96.75" height="145" as="alternateBounds" />
          </mxGeometry>
        </mxCell>
        <mxCell id="D-i0xarBF_kTSEOnXS1Z-62" value="Object {&lt;div&gt;&amp;nbsp; lrn, age, birthplace, height, weight, citizenship, religion, civil_status, cp_num, landline_num,.email, fb_acc, telefax, means, sponsors, ip, pwd, listahan, perma_address, id_picture, signature&lt;/div&gt;&lt;div&gt;}&lt;/div&gt;" style="shape=partialRectangle;connectable=0;fillColor=none;top=0;left=0;bottom=0;right=0;align=left;spacingLeft=6;overflow=hidden;whiteSpace=wrap;html=1;" vertex="1" parent="D-i0xarBF_kTSEOnXS1Z-59">
          <mxGeometry x="126.75" width="203.25" height="145" as="geometry">
            <mxRectangle width="203.25" height="145" as="alternateBounds" />
          </mxGeometry>
        </mxCell>
        <mxCell id="D-i0xarBF_kTSEOnXS1Z-63" style="shape=tableRow;horizontal=0;startSize=0;swimlaneHead=0;swimlaneBody=0;fillColor=none;collapsible=0;dropTarget=0;points=[[0,0.5],[1,0.5]];portConstraint=eastwest;top=0;left=0;right=0;bottom=0;" vertex="1" parent="D-i0xarBF_kTSEOnXS1Z-50">
          <mxGeometry y="257" width="330" height="214" as="geometry" />
        </mxCell>
        <mxCell id="D-i0xarBF_kTSEOnXS1Z-64" style="shape=partialRectangle;connectable=0;fillColor=none;top=0;left=0;bottom=0;right=0;editable=1;overflow=hidden;whiteSpace=wrap;html=1;" vertex="1" parent="D-i0xarBF_kTSEOnXS1Z-63">
          <mxGeometry width="30" height="214" as="geometry">
            <mxRectangle width="30" height="214" as="alternateBounds" />
          </mxGeometry>
        </mxCell>
        <mxCell id="D-i0xarBF_kTSEOnXS1Z-65" value="fam_bg" style="shape=partialRectangle;connectable=0;fillColor=none;top=0;left=0;bottom=0;right=0;align=left;spacingLeft=6;overflow=hidden;whiteSpace=wrap;html=1;" vertex="1" parent="D-i0xarBF_kTSEOnXS1Z-63">
          <mxGeometry x="30" width="96.75" height="214" as="geometry">
            <mxRectangle width="96.75" height="214" as="alternateBounds" />
          </mxGeometry>
        </mxCell>
        <mxCell id="D-i0xarBF_kTSEOnXS1Z-66" value="Object {&lt;div&gt;&amp;nbsp;father { name, contact, highest_ed, occupation, employer, employer_address, salary },&lt;/div&gt;&lt;div&gt;mother&amp;nbsp;&lt;span style=&quot;background-color: transparent; color: light-dark(rgb(0, 0, 0), rgb(255, 255, 255));&quot;&gt;{ name, contact, highest_ed, occupation, employer, employer_address, salary },&lt;/span&gt;&lt;/div&gt;&lt;div&gt;&lt;span style=&quot;background-color: transparent; color: light-dark(rgb(0, 0, 0), rgb(255, 255, 255));&quot;&gt;guardian&amp;nbsp;&lt;/span&gt;&lt;span style=&quot;background-color: transparent; color: light-dark(rgb(0, 0, 0), rgb(255, 255, 255));&quot;&gt;{ name, contact, highest_ed, occupation, employer, employer_address, salary },&lt;/span&gt;&lt;/div&gt;&lt;div&gt;num_siblings.&lt;/div&gt;&lt;div&gt;salary_per_year&lt;/div&gt;&lt;div&gt;}&lt;/div&gt;" style="shape=partialRectangle;connectable=0;fillColor=none;top=0;left=0;bottom=0;right=0;align=left;spacingLeft=6;overflow=hidden;whiteSpace=wrap;html=1;" vertex="1" parent="D-i0xarBF_kTSEOnXS1Z-63">
          <mxGeometry x="126.75" width="203.25" height="214" as="geometry">
            <mxRectangle width="203.25" height="214" as="alternateBounds" />
          </mxGeometry>
        </mxCell>
        <mxCell id="D-i0xarBF_kTSEOnXS1Z-67" style="shape=tableRow;horizontal=0;startSize=0;swimlaneHead=0;swimlaneBody=0;fillColor=none;collapsible=0;dropTarget=0;points=[[0,0.5],[1,0.5]];portConstraint=eastwest;top=0;left=0;right=0;bottom=0;" vertex="1" parent="D-i0xarBF_kTSEOnXS1Z-50">
          <mxGeometry y="471" width="330" height="412" as="geometry" />
        </mxCell>
        <mxCell id="D-i0xarBF_kTSEOnXS1Z-68" style="shape=partialRectangle;connectable=0;fillColor=none;top=0;left=0;bottom=0;right=0;editable=1;overflow=hidden;whiteSpace=wrap;html=1;" vertex="1" parent="D-i0xarBF_kTSEOnXS1Z-67">
          <mxGeometry width="30" height="412" as="geometry">
            <mxRectangle width="30" height="412" as="alternateBounds" />
          </mxGeometry>
        </mxCell>
        <mxCell id="D-i0xarBF_kTSEOnXS1Z-69" value="education" style="shape=partialRectangle;connectable=0;fillColor=none;top=0;left=0;bottom=0;right=0;align=left;spacingLeft=6;overflow=hidden;whiteSpace=wrap;html=1;" vertex="1" parent="D-i0xarBF_kTSEOnXS1Z-67">
          <mxGeometry x="30" width="96.75" height="412" as="geometry">
            <mxRectangle width="96.75" height="412" as="alternateBounds" />
          </mxGeometry>
        </mxCell>
        <mxCell id="D-i0xarBF_kTSEOnXS1Z-70" value="Object {&lt;div&gt;attainment: [ {&amp;nbsp;&lt;/div&gt;&lt;div&gt;&lt;span style=&quot;white-space: pre;&quot;&gt;&#x9;&lt;/span&gt;school_lvl, school_last_attended, school_address, program, major, honor, distinction, year_graduated&lt;br&gt;&lt;/div&gt;&lt;div&gt;} ], category, grade: {&lt;/div&gt;&lt;div&gt;&amp;nbsp; math: {&lt;/div&gt;&lt;div&gt;&amp;nbsp; &amp;nbsp; &amp;nbsp;basic_calculus,&lt;/div&gt;&lt;div&gt;&amp;nbsp; &amp;nbsp; &amp;nbsp;pre_calculus,&lt;br&gt;&amp;nbsp; &amp;nbsp; &amp;nbsp;general_math,&lt;/div&gt;&lt;div&gt;&amp;nbsp; &amp;nbsp; &amp;nbsp;stat_probab,&lt;/div&gt;&lt;div&gt;&amp;nbsp; &amp;nbsp; &amp;nbsp;solid_geom,&lt;/div&gt;&lt;div&gt;&amp;nbsp; },&lt;/div&gt;&lt;div&gt;&amp;nbsp; science: {&lt;/div&gt;&lt;div&gt;&amp;nbsp; &amp;nbsp; &amp;nbsp;gen_chemistry_1,&lt;/div&gt;&lt;div&gt;&amp;nbsp; &amp;nbsp; &amp;nbsp;gen_chemistry_2,&lt;/div&gt;&lt;div&gt;&amp;nbsp; &amp;nbsp; &amp;nbsp;gen_physics,&lt;/div&gt;&lt;div&gt;&amp;nbsp; &amp;nbsp; &amp;nbsp;biology&lt;/div&gt;&lt;div&gt;&amp;nbsp; },&lt;/div&gt;&lt;div&gt;&amp;nbsp; english: {&lt;/div&gt;&lt;div&gt;&amp;nbsp; &amp;nbsp; &amp;nbsp;read_write,&lt;/div&gt;&lt;div&gt;&amp;nbsp; &amp;nbsp; &amp;nbsp;oral_comm,&lt;/div&gt;&lt;div&gt;&amp;nbsp; &amp;nbsp; &amp;nbsp;eapp,&lt;/div&gt;&lt;div&gt;&amp;nbsp; &amp;nbsp; &amp;nbsp;eng_efficiency&lt;/div&gt;&lt;div&gt;&amp;nbsp; },&amp;nbsp;&lt;/div&gt;&lt;div&gt;&amp;nbsp; track&lt;/div&gt;&lt;div&gt;}&lt;/div&gt;" style="shape=partialRectangle;connectable=0;fillColor=none;top=0;left=0;bottom=0;right=0;align=left;spacingLeft=6;overflow=hidden;whiteSpace=wrap;html=1;" vertex="1" parent="D-i0xarBF_kTSEOnXS1Z-67">
          <mxGeometry x="126.75" width="203.25" height="412" as="geometry">
            <mxRectangle width="203.25" height="412" as="alternateBounds" />
          </mxGeometry>
        </mxCell>
        <mxCell id="D-i0xarBF_kTSEOnXS1Z-83" style="shape=tableRow;horizontal=0;startSize=0;swimlaneHead=0;swimlaneBody=0;fillColor=none;collapsible=0;dropTarget=0;points=[[0,0.5],[1,0.5]];portConstraint=eastwest;top=0;left=0;right=0;bottom=0;" vertex="1" parent="D-i0xarBF_kTSEOnXS1Z-50">
          <mxGeometry y="883" width="330" height="30" as="geometry" />
        </mxCell>
        <mxCell id="D-i0xarBF_kTSEOnXS1Z-84" style="shape=partialRectangle;connectable=0;fillColor=none;top=0;left=0;bottom=0;right=0;editable=1;overflow=hidden;whiteSpace=wrap;html=1;" vertex="1" parent="D-i0xarBF_kTSEOnXS1Z-83">
          <mxGeometry width="30" height="30" as="geometry">
            <mxRectangle width="30" height="30" as="alternateBounds" />
          </mxGeometry>
        </mxCell>
        <mxCell id="D-i0xarBF_kTSEOnXS1Z-85" value="status" style="shape=partialRectangle;connectable=0;fillColor=none;top=0;left=0;bottom=0;right=0;align=left;spacingLeft=6;overflow=hidden;whiteSpace=wrap;html=1;" vertex="1" parent="D-i0xarBF_kTSEOnXS1Z-83">
          <mxGeometry x="30" width="96.75" height="30" as="geometry">
            <mxRectangle width="96.75" height="30" as="alternateBounds" />
          </mxGeometry>
        </mxCell>
        <mxCell id="D-i0xarBF_kTSEOnXS1Z-86" style="shape=partialRectangle;connectable=0;fillColor=none;top=0;left=0;bottom=0;right=0;align=left;spacingLeft=6;overflow=hidden;whiteSpace=wrap;html=1;" vertex="1" parent="D-i0xarBF_kTSEOnXS1Z-83">
          <mxGeometry x="126.75" width="203.25" height="30" as="geometry">
            <mxRectangle width="203.25" height="30" as="alternateBounds" />
          </mxGeometry>
        </mxCell>
        <mxCell id="D-i0xarBF_kTSEOnXS1Z-87" style="shape=tableRow;horizontal=0;startSize=0;swimlaneHead=0;swimlaneBody=0;fillColor=none;collapsible=0;dropTarget=0;points=[[0,0.5],[1,0.5]];portConstraint=eastwest;top=0;left=0;right=0;bottom=0;" vertex="1" parent="D-i0xarBF_kTSEOnXS1Z-50">
          <mxGeometry y="913" width="330" height="30" as="geometry" />
        </mxCell>
        <mxCell id="D-i0xarBF_kTSEOnXS1Z-88" style="shape=partialRectangle;connectable=0;fillColor=none;top=0;left=0;bottom=0;right=0;editable=1;overflow=hidden;whiteSpace=wrap;html=1;" vertex="1" parent="D-i0xarBF_kTSEOnXS1Z-87">
          <mxGeometry width="30" height="30" as="geometry">
            <mxRectangle width="30" height="30" as="alternateBounds" />
          </mxGeometry>
        </mxCell>
        <mxCell id="D-i0xarBF_kTSEOnXS1Z-89" value="profile" style="shape=partialRectangle;connectable=0;fillColor=none;top=0;left=0;bottom=0;right=0;align=left;spacingLeft=6;overflow=hidden;whiteSpace=wrap;html=1;" vertex="1" parent="D-i0xarBF_kTSEOnXS1Z-87">
          <mxGeometry x="30" width="96.75" height="30" as="geometry">
            <mxRectangle width="96.75" height="30" as="alternateBounds" />
          </mxGeometry>
        </mxCell>
        <mxCell id="D-i0xarBF_kTSEOnXS1Z-90" style="shape=partialRectangle;connectable=0;fillColor=none;top=0;left=0;bottom=0;right=0;align=left;spacingLeft=6;overflow=hidden;whiteSpace=wrap;html=1;" vertex="1" parent="D-i0xarBF_kTSEOnXS1Z-87">
          <mxGeometry x="126.75" width="203.25" height="30" as="geometry">
            <mxRectangle width="203.25" height="30" as="alternateBounds" />
          </mxGeometry>
        </mxCell>
        <mxCell id="D-i0xarBF_kTSEOnXS1Z-91" style="edgeStyle=orthogonalEdgeStyle;rounded=0;orthogonalLoop=1;jettySize=auto;html=1;exitX=1;exitY=0.5;exitDx=0;exitDy=0;entryX=0;entryY=0.5;entryDx=0;entryDy=0;fontSize=12;startSize=8;endSize=8;" edge="1" parent="1" source="D-i0xarBF_kTSEOnXS1Z-46" target="D-i0xarBF_kTSEOnXS1Z-51">
          <mxGeometry relative="1" as="geometry" />
        </mxCell>
      </root>
    </mxGraphModel>
  </diagram>
</mxfile>
